# xmcd
#
# Track frame offsets:
#	183
#	16923
#	30488
#	49585
#	72250
#	83858
#	95378
#	117798
#	148400
#	160220
#	177658
#	203183
#	217430
#	233150
#	259273
#	272883
#
# Disc length: 3875
#
# Revision: 3
# Processed by: cddbd v1.5.1PL0 Copyright (c) Steve Scherf et al.
# Submitted via: CDex 1.51
# Normalized: r2:DSETVAR1
#
DISCID=ef0f2110
DTITLE=Various Artist - ambiances
DYEAR=1993
DGENRE=New Age
TTITLE0=madredeus - o pastor
TTITLE1=brian eno - by this river
TTITLE2=abed azrié - legend of the bird
TTITLE3=andreas vollenweider - pearls and tears
TTITLE4=michael nyman - chasing sheep is best left to sheperds
TTITLE5=philippe eidel - pavane de l'ange
TTITLE6=goran bregovic - ederlezei
TTITLE7=evan lurie - determination for rosa parks
TTITLE8=philip glass - etoile polaire
TTITLE9=wim mertens - struggle for pleasure
TTITLE10=miles davis - miles
TTITLE11=pascal comelade - promenade des schizophrenes
TTITLE12=gabriel yared - a short tale
TTITLE13=les voix bulgares - klara
TTITLE14=the durutti column - madeleine
TTITLE15=jean louis murat - st françois d'assise
EXTD=YEAR: 1993
EXTT0=
EXTT1=
EXTT2=
EXTT3=
EXTT4=
EXTT5=
EXTT6=
EXTT7=
EXTT8=
EXTT9=
EXTT10=
EXTT11=
EXTT12=
EXTT13=
EXTT14=
EXTT15=
PLAYORDER=
